<mxfile host="Electron" modified="2024-02-25T10:11:37.667Z" agent="Mozilla/5.0 (Windows NT 10.0; Win64; x64) AppleWebKit/537.36 (KHTML, like Gecko) draw.io/23.1.5 Chrome/120.0.6099.109 Electron/28.1.0 Safari/537.36" etag="CwbZ_Xr5VqYJnFHf2W8N" version="23.1.5" type="device">
  <diagram name="ページ1" id="hr17HKGY79QitfYiQoP-">
    <mxGraphModel dx="794" dy="557" grid="1" gridSize="10" guides="1" tooltips="1" connect="1" arrows="1" fold="1" page="1" pageScale="1" pageWidth="827" pageHeight="1169" math="1" shadow="0">
      <root>
        <mxCell id="0" />
        <mxCell id="1" parent="0" />
        <mxCell id="U-lK1-ON_NXN1A1_Nm4T-57" value="&lt;font style=&quot;font-size: 20px;&quot;&gt;アナライザ&lt;/font&gt;" style="verticalLabelPosition=bottom;verticalAlign=top;html=1;shape=mxgraph.basic.rect;fillColor2=none;strokeWidth=1;size=20;indent=5;fillColor=none;dashed=1;" vertex="1" parent="1">
          <mxGeometry x="180" y="60" width="240" height="320" as="geometry" />
        </mxCell>
        <mxCell id="U-lK1-ON_NXN1A1_Nm4T-58" value="&lt;font style=&quot;font-size: 20px;&quot;&gt;シンセサイザ&lt;/font&gt;" style="verticalLabelPosition=bottom;verticalAlign=top;html=1;shape=mxgraph.basic.rect;fillColor2=none;strokeWidth=1;size=20;indent=5;fillColor=none;dashed=1;" vertex="1" parent="1">
          <mxGeometry x="460" y="60" width="240" height="320" as="geometry" />
        </mxCell>
        <mxCell id="U-lK1-ON_NXN1A1_Nm4T-2" value="&lt;font style=&quot;font-size: 16px;&quot;&gt;$$H_{0}(z)$$&lt;/font&gt;" style="rounded=0;whiteSpace=wrap;html=1;" vertex="1" parent="1">
          <mxGeometry x="200" y="80" width="80" height="40" as="geometry" />
        </mxCell>
        <mxCell id="U-lK1-ON_NXN1A1_Nm4T-3" value="&lt;font style=&quot;font-size: 16px;&quot;&gt;$$\downarrow&lt;br&gt;M$$&lt;/font&gt;" style="rounded=0;whiteSpace=wrap;html=1;" vertex="1" parent="1">
          <mxGeometry x="320" y="80" width="80" height="40" as="geometry" />
        </mxCell>
        <mxCell id="U-lK1-ON_NXN1A1_Nm4T-4" value="&lt;font style=&quot;font-size: 16px;&quot;&gt;$$\downarrow&lt;br&gt;M$$&lt;/font&gt;" style="rounded=0;whiteSpace=wrap;html=1;" vertex="1" parent="1">
          <mxGeometry x="320" y="160" width="80" height="40" as="geometry" />
        </mxCell>
        <mxCell id="U-lK1-ON_NXN1A1_Nm4T-5" value="&lt;font style=&quot;font-size: 16px;&quot;&gt;$$\downarrow&lt;br&gt;M$$&lt;/font&gt;" style="rounded=0;whiteSpace=wrap;html=1;" vertex="1" parent="1">
          <mxGeometry x="320" y="320" width="80" height="40" as="geometry" />
        </mxCell>
        <mxCell id="U-lK1-ON_NXN1A1_Nm4T-6" value="&lt;font style=&quot;font-size: 16px;&quot;&gt;$$H_{1}(z)$$&lt;/font&gt;" style="rounded=0;whiteSpace=wrap;html=1;" vertex="1" parent="1">
          <mxGeometry x="200" y="160" width="80" height="40" as="geometry" />
        </mxCell>
        <mxCell id="U-lK1-ON_NXN1A1_Nm4T-7" value="&lt;font style=&quot;font-size: 16px;&quot;&gt;$$H_{M-1}(z)$$&lt;/font&gt;" style="rounded=0;whiteSpace=wrap;html=1;" vertex="1" parent="1">
          <mxGeometry x="200" y="320" width="80" height="40" as="geometry" />
        </mxCell>
        <mxCell id="U-lK1-ON_NXN1A1_Nm4T-8" value="" style="shape=waypoint;sketch=0;fillStyle=solid;size=6;pointerEvents=1;points=[];fillColor=none;resizable=0;rotatable=0;perimeter=centerPerimeter;snapToPoint=1;" vertex="1" parent="1">
          <mxGeometry x="150" y="210" width="20" height="20" as="geometry" />
        </mxCell>
        <mxCell id="U-lK1-ON_NXN1A1_Nm4T-9" value="" style="edgeStyle=segmentEdgeStyle;endArrow=classic;html=1;curved=0;rounded=0;endSize=8;startSize=8;entryX=0;entryY=0.5;entryDx=0;entryDy=0;" edge="1" parent="1" source="U-lK1-ON_NXN1A1_Nm4T-18" target="U-lK1-ON_NXN1A1_Nm4T-2">
          <mxGeometry width="50" height="50" relative="1" as="geometry">
            <mxPoint x="160" y="220" as="sourcePoint" />
            <mxPoint x="430" y="260" as="targetPoint" />
            <Array as="points">
              <mxPoint x="160" y="100" />
            </Array>
          </mxGeometry>
        </mxCell>
        <mxCell id="U-lK1-ON_NXN1A1_Nm4T-11" value="" style="edgeStyle=segmentEdgeStyle;endArrow=classic;html=1;curved=0;rounded=0;endSize=8;startSize=8;entryX=0;entryY=0.5;entryDx=0;entryDy=0;" edge="1" parent="1" target="U-lK1-ON_NXN1A1_Nm4T-7">
          <mxGeometry width="50" height="50" relative="1" as="geometry">
            <mxPoint x="160" y="220" as="sourcePoint" />
            <mxPoint x="210" y="190" as="targetPoint" />
            <Array as="points">
              <mxPoint x="160" y="340" />
            </Array>
          </mxGeometry>
        </mxCell>
        <mxCell id="U-lK1-ON_NXN1A1_Nm4T-12" value="" style="endArrow=classic;html=1;rounded=0;entryX=0.233;entryY=0.667;entryDx=0;entryDy=0;entryPerimeter=0;" edge="1" parent="1" source="U-lK1-ON_NXN1A1_Nm4T-23" target="U-lK1-ON_NXN1A1_Nm4T-8">
          <mxGeometry width="50" height="50" relative="1" as="geometry">
            <mxPoint x="90" y="220" as="sourcePoint" />
            <mxPoint x="430" y="260" as="targetPoint" />
          </mxGeometry>
        </mxCell>
        <mxCell id="U-lK1-ON_NXN1A1_Nm4T-13" value="" style="endArrow=classic;html=1;rounded=0;exitX=1;exitY=0.5;exitDx=0;exitDy=0;entryX=0;entryY=0.5;entryDx=0;entryDy=0;" edge="1" parent="1" source="U-lK1-ON_NXN1A1_Nm4T-2" target="U-lK1-ON_NXN1A1_Nm4T-3">
          <mxGeometry width="50" height="50" relative="1" as="geometry">
            <mxPoint x="380" y="310" as="sourcePoint" />
            <mxPoint x="430" y="260" as="targetPoint" />
          </mxGeometry>
        </mxCell>
        <mxCell id="U-lK1-ON_NXN1A1_Nm4T-14" value="" style="endArrow=classic;html=1;rounded=0;exitX=1;exitY=0.5;exitDx=0;exitDy=0;entryX=0;entryY=0.5;entryDx=0;entryDy=0;" edge="1" parent="1" source="U-lK1-ON_NXN1A1_Nm4T-6" target="U-lK1-ON_NXN1A1_Nm4T-4">
          <mxGeometry width="50" height="50" relative="1" as="geometry">
            <mxPoint x="290" y="110" as="sourcePoint" />
            <mxPoint x="330" y="110" as="targetPoint" />
          </mxGeometry>
        </mxCell>
        <mxCell id="U-lK1-ON_NXN1A1_Nm4T-15" value="" style="endArrow=classic;html=1;rounded=0;exitX=1;exitY=0.5;exitDx=0;exitDy=0;entryX=0;entryY=0.5;entryDx=0;entryDy=0;" edge="1" parent="1" source="U-lK1-ON_NXN1A1_Nm4T-7" target="U-lK1-ON_NXN1A1_Nm4T-5">
          <mxGeometry width="50" height="50" relative="1" as="geometry">
            <mxPoint x="290" y="190" as="sourcePoint" />
            <mxPoint x="330" y="190" as="targetPoint" />
          </mxGeometry>
        </mxCell>
        <mxCell id="U-lK1-ON_NXN1A1_Nm4T-18" value="" style="shape=waypoint;sketch=0;fillStyle=solid;size=6;pointerEvents=1;points=[];fillColor=none;resizable=0;rotatable=0;perimeter=centerPerimeter;snapToPoint=1;" vertex="1" parent="1">
          <mxGeometry x="150" y="170" width="20" height="20" as="geometry" />
        </mxCell>
        <mxCell id="U-lK1-ON_NXN1A1_Nm4T-21" value="" style="endArrow=classic;html=1;rounded=0;exitX=0.633;exitY=0.867;exitDx=0;exitDy=0;exitPerimeter=0;entryX=0;entryY=0.5;entryDx=0;entryDy=0;" edge="1" parent="1" source="U-lK1-ON_NXN1A1_Nm4T-18" target="U-lK1-ON_NXN1A1_Nm4T-6">
          <mxGeometry width="50" height="50" relative="1" as="geometry">
            <mxPoint x="380" y="310" as="sourcePoint" />
            <mxPoint x="430" y="260" as="targetPoint" />
          </mxGeometry>
        </mxCell>
        <mxCell id="U-lK1-ON_NXN1A1_Nm4T-22" value="" style="endArrow=none;html=1;rounded=0;exitX=0.8;exitY=0.867;exitDx=0;exitDy=0;exitPerimeter=0;" edge="1" parent="1" source="U-lK1-ON_NXN1A1_Nm4T-8">
          <mxGeometry width="50" height="50" relative="1" as="geometry">
            <mxPoint x="380" y="310" as="sourcePoint" />
            <mxPoint x="160" y="180" as="targetPoint" />
          </mxGeometry>
        </mxCell>
        <mxCell id="U-lK1-ON_NXN1A1_Nm4T-23" value="&lt;font style=&quot;font-size: 15px;&quot;&gt;$$x[n]$$&lt;/font&gt;" style="text;html=1;align=center;verticalAlign=middle;whiteSpace=wrap;rounded=0;" vertex="1" parent="1">
          <mxGeometry x="79" y="205" width="40" height="30" as="geometry" />
        </mxCell>
        <mxCell id="U-lK1-ON_NXN1A1_Nm4T-24" value="&lt;font style=&quot;font-size: 16px;&quot;&gt;$$F_{0}(z)$$&lt;/font&gt;" style="rounded=0;whiteSpace=wrap;html=1;" vertex="1" parent="1">
          <mxGeometry x="600" y="80" width="80" height="40" as="geometry" />
        </mxCell>
        <mxCell id="U-lK1-ON_NXN1A1_Nm4T-28" value="&lt;font style=&quot;font-size: 16px;&quot;&gt;$$F_{1}(z)$$&lt;/font&gt;" style="rounded=0;whiteSpace=wrap;html=1;" vertex="1" parent="1">
          <mxGeometry x="600" y="160" width="80" height="40" as="geometry" />
        </mxCell>
        <mxCell id="U-lK1-ON_NXN1A1_Nm4T-29" value="&lt;font style=&quot;font-size: 16px;&quot;&gt;$$F_{M-1}(z)$$&lt;/font&gt;" style="rounded=0;whiteSpace=wrap;html=1;" vertex="1" parent="1">
          <mxGeometry x="600" y="320" width="80" height="40" as="geometry" />
        </mxCell>
        <mxCell id="U-lK1-ON_NXN1A1_Nm4T-39" value="&lt;font style=&quot;font-size: 16px;&quot;&gt;$$\uparrow&lt;br&gt;M$$&lt;/font&gt;" style="rounded=0;whiteSpace=wrap;html=1;" vertex="1" parent="1">
          <mxGeometry x="480" y="80" width="80" height="40" as="geometry" />
        </mxCell>
        <mxCell id="U-lK1-ON_NXN1A1_Nm4T-40" value="&lt;font style=&quot;font-size: 16px;&quot;&gt;$$\uparrow&lt;br&gt;M$$&lt;/font&gt;" style="rounded=0;whiteSpace=wrap;html=1;" vertex="1" parent="1">
          <mxGeometry x="480" y="160" width="80" height="40" as="geometry" />
        </mxCell>
        <mxCell id="U-lK1-ON_NXN1A1_Nm4T-41" value="&lt;font style=&quot;font-size: 16px;&quot;&gt;$$\uparrow&lt;br&gt;M$$&lt;/font&gt;" style="rounded=0;whiteSpace=wrap;html=1;" vertex="1" parent="1">
          <mxGeometry x="480" y="320" width="80" height="40" as="geometry" />
        </mxCell>
        <mxCell id="U-lK1-ON_NXN1A1_Nm4T-42" value="" style="endArrow=classic;html=1;rounded=0;exitX=1;exitY=0.5;exitDx=0;exitDy=0;entryX=0;entryY=0.5;entryDx=0;entryDy=0;" edge="1" parent="1" source="U-lK1-ON_NXN1A1_Nm4T-39" target="U-lK1-ON_NXN1A1_Nm4T-24">
          <mxGeometry width="50" height="50" relative="1" as="geometry">
            <mxPoint x="690" y="110" as="sourcePoint" />
            <mxPoint x="730" y="110" as="targetPoint" />
          </mxGeometry>
        </mxCell>
        <mxCell id="U-lK1-ON_NXN1A1_Nm4T-43" value="" style="endArrow=classic;html=1;rounded=0;exitX=1;exitY=0.5;exitDx=0;exitDy=0;entryX=0;entryY=0.5;entryDx=0;entryDy=0;" edge="1" parent="1" source="U-lK1-ON_NXN1A1_Nm4T-40" target="U-lK1-ON_NXN1A1_Nm4T-28">
          <mxGeometry width="50" height="50" relative="1" as="geometry">
            <mxPoint x="570" y="110" as="sourcePoint" />
            <mxPoint x="610" y="110" as="targetPoint" />
          </mxGeometry>
        </mxCell>
        <mxCell id="U-lK1-ON_NXN1A1_Nm4T-44" value="" style="endArrow=classic;html=1;rounded=0;exitX=1;exitY=0.5;exitDx=0;exitDy=0;entryX=0;entryY=0.5;entryDx=0;entryDy=0;" edge="1" parent="1" source="U-lK1-ON_NXN1A1_Nm4T-41" target="U-lK1-ON_NXN1A1_Nm4T-29">
          <mxGeometry width="50" height="50" relative="1" as="geometry">
            <mxPoint x="570" y="190" as="sourcePoint" />
            <mxPoint x="610" y="190" as="targetPoint" />
          </mxGeometry>
        </mxCell>
        <mxCell id="U-lK1-ON_NXN1A1_Nm4T-46" value="" style="edgeStyle=segmentEdgeStyle;endArrow=classic;html=1;curved=0;rounded=0;endSize=8;startSize=8;exitX=1;exitY=0.5;exitDx=0;exitDy=0;entryX=0.5;entryY=1;entryDx=0;entryDy=0;entryPerimeter=0;" edge="1" parent="1" source="U-lK1-ON_NXN1A1_Nm4T-29" target="U-lK1-ON_NXN1A1_Nm4T-47">
          <mxGeometry width="50" height="50" relative="1" as="geometry">
            <mxPoint x="610" y="380" as="sourcePoint" />
            <mxPoint x="720" y="280" as="targetPoint" />
            <Array as="points">
              <mxPoint x="720" y="340" />
            </Array>
          </mxGeometry>
        </mxCell>
        <mxCell id="U-lK1-ON_NXN1A1_Nm4T-47" value="" style="verticalLabelPosition=bottom;verticalAlign=top;html=1;shape=mxgraph.flowchart.summing_function;" vertex="1" parent="1">
          <mxGeometry x="710" y="210" width="20" height="20" as="geometry" />
        </mxCell>
        <mxCell id="U-lK1-ON_NXN1A1_Nm4T-49" value="" style="edgeStyle=segmentEdgeStyle;endArrow=classic;html=1;curved=0;rounded=0;endSize=8;startSize=8;entryX=0.5;entryY=0;entryDx=0;entryDy=0;exitX=1;exitY=0.5;exitDx=0;exitDy=0;entryPerimeter=0;" edge="1" parent="1" source="U-lK1-ON_NXN1A1_Nm4T-24" target="U-lK1-ON_NXN1A1_Nm4T-47">
          <mxGeometry width="50" height="50" relative="1" as="geometry">
            <mxPoint x="750" y="180" as="sourcePoint" />
            <mxPoint x="790" y="100" as="targetPoint" />
            <Array as="points" />
          </mxGeometry>
        </mxCell>
        <mxCell id="U-lK1-ON_NXN1A1_Nm4T-50" value="" style="endArrow=classic;html=1;rounded=0;exitX=1;exitY=0.5;exitDx=0;exitDy=0;entryX=0.145;entryY=0.145;entryDx=0;entryDy=0;entryPerimeter=0;" edge="1" parent="1" source="U-lK1-ON_NXN1A1_Nm4T-28" target="U-lK1-ON_NXN1A1_Nm4T-47">
          <mxGeometry width="50" height="50" relative="1" as="geometry">
            <mxPoint x="430" y="310" as="sourcePoint" />
            <mxPoint x="480" y="260" as="targetPoint" />
          </mxGeometry>
        </mxCell>
        <mxCell id="U-lK1-ON_NXN1A1_Nm4T-51" value="" style="endArrow=classic;html=1;rounded=0;exitX=1;exitY=0.5;exitDx=0;exitDy=0;entryX=0;entryY=0.5;entryDx=0;entryDy=0;" edge="1" parent="1" source="U-lK1-ON_NXN1A1_Nm4T-3" target="U-lK1-ON_NXN1A1_Nm4T-39">
          <mxGeometry width="50" height="50" relative="1" as="geometry">
            <mxPoint x="430" y="310" as="sourcePoint" />
            <mxPoint x="480" y="260" as="targetPoint" />
          </mxGeometry>
        </mxCell>
        <mxCell id="U-lK1-ON_NXN1A1_Nm4T-52" value="" style="endArrow=classic;html=1;rounded=0;exitX=1;exitY=0.5;exitDx=0;exitDy=0;entryX=0;entryY=0.5;entryDx=0;entryDy=0;" edge="1" parent="1" source="U-lK1-ON_NXN1A1_Nm4T-4" target="U-lK1-ON_NXN1A1_Nm4T-40">
          <mxGeometry width="50" height="50" relative="1" as="geometry">
            <mxPoint x="410" y="110" as="sourcePoint" />
            <mxPoint x="490" y="110" as="targetPoint" />
          </mxGeometry>
        </mxCell>
        <mxCell id="U-lK1-ON_NXN1A1_Nm4T-53" value="" style="endArrow=classic;html=1;rounded=0;exitX=1;exitY=0.5;exitDx=0;exitDy=0;entryX=0;entryY=0.5;entryDx=0;entryDy=0;" edge="1" parent="1" source="U-lK1-ON_NXN1A1_Nm4T-5" target="U-lK1-ON_NXN1A1_Nm4T-41">
          <mxGeometry width="50" height="50" relative="1" as="geometry">
            <mxPoint x="410" y="190" as="sourcePoint" />
            <mxPoint x="490" y="190" as="targetPoint" />
          </mxGeometry>
        </mxCell>
        <mxCell id="U-lK1-ON_NXN1A1_Nm4T-54" value="" style="endArrow=classic;html=1;rounded=0;exitX=1;exitY=0.5;exitDx=0;exitDy=0;exitPerimeter=0;entryX=0;entryY=0.5;entryDx=0;entryDy=0;" edge="1" parent="1" source="U-lK1-ON_NXN1A1_Nm4T-47" target="U-lK1-ON_NXN1A1_Nm4T-55">
          <mxGeometry width="50" height="50" relative="1" as="geometry">
            <mxPoint x="730" y="219.5" as="sourcePoint" />
            <mxPoint x="770" y="220" as="targetPoint" />
          </mxGeometry>
        </mxCell>
        <mxCell id="U-lK1-ON_NXN1A1_Nm4T-55" value="&lt;font style=&quot;font-size: 15px;&quot;&gt;$$\hat{x}[n]$$&lt;/font&gt;" style="text;html=1;align=center;verticalAlign=middle;whiteSpace=wrap;rounded=0;" vertex="1" parent="1">
          <mxGeometry x="760" y="205" width="40" height="30" as="geometry" />
        </mxCell>
        <mxCell id="U-lK1-ON_NXN1A1_Nm4T-59" value="&lt;font style=&quot;font-size: 20px;&quot;&gt;$$\vdots$$&lt;/font&gt;" style="text;html=1;align=center;verticalAlign=middle;whiteSpace=wrap;rounded=0;direction=north;" vertex="1" parent="1">
          <mxGeometry x="225" y="230" width="30" height="60" as="geometry" />
        </mxCell>
        <mxCell id="U-lK1-ON_NXN1A1_Nm4T-60" value="&lt;font style=&quot;font-size: 20px;&quot;&gt;$$\vdots$$&lt;/font&gt;" style="text;html=1;align=center;verticalAlign=middle;whiteSpace=wrap;rounded=0;direction=north;" vertex="1" parent="1">
          <mxGeometry x="345" y="230" width="30" height="60" as="geometry" />
        </mxCell>
        <mxCell id="U-lK1-ON_NXN1A1_Nm4T-61" value="&lt;font style=&quot;font-size: 20px;&quot;&gt;$$\vdots$$&lt;/font&gt;" style="text;html=1;align=center;verticalAlign=middle;whiteSpace=wrap;rounded=0;direction=north;" vertex="1" parent="1">
          <mxGeometry x="505" y="230" width="30" height="60" as="geometry" />
        </mxCell>
        <mxCell id="U-lK1-ON_NXN1A1_Nm4T-62" value="&lt;font style=&quot;font-size: 20px;&quot;&gt;$$\vdots$$&lt;/font&gt;" style="text;html=1;align=center;verticalAlign=middle;whiteSpace=wrap;rounded=0;direction=north;" vertex="1" parent="1">
          <mxGeometry x="625" y="230" width="30" height="60" as="geometry" />
        </mxCell>
      </root>
    </mxGraphModel>
  </diagram>
</mxfile>
